<svg id="Layer_1" data-name="Layer 1" xmlns="http://www.w3.org/2000/svg" xmlns:xlink="http://www.w3.org/1999/xlink" viewBox="0 0 284.1 147.52"><defs><style>.cls-1{fill:none;}.cls-2{isolation:isolate;}.cls-3{fill:#c5c5c5;}.cls-4{clip-path:url(#clip-path);}.cls-5{fill:#858585;}.cls-6{clip-path:url(#clip-path-2);}.cls-7{clip-path:url(#clip-path-3);}.cls-8{clip-path:url(#clip-path-4);}.cls-9{clip-path:url(#clip-path-5);}.cls-10{clip-path:url(#clip-path-6);}.cls-11{clip-path:url(#clip-path-7);}.cls-12{clip-path:url(#clip-path-8);}.cls-13{clip-path:url(#clip-path-9);}.cls-14{clip-path:url(#clip-path-10);}.cls-15{clip-path:url(#clip-path-11);}.cls-16{clip-path:url(#clip-path-12);}.cls-17{clip-path:url(#clip-path-13);}.cls-18{clip-path:url(#clip-path-14);}.cls-19{clip-path:url(#clip-path-15);}.cls-20{clip-path:url(#clip-path-16);}.cls-21{clip-path:url(#clip-path-17);}.cls-22{clip-path:url(#clip-path-18);}.cls-23{clip-path:url(#clip-path-19);}.cls-24{clip-path:url(#clip-path-20);}.cls-25{clip-path:url(#clip-path-21);}.cls-26{clip-path:url(#clip-path-22);}.cls-27{clip-path:url(#clip-path-23);}.cls-28{clip-path:url(#clip-path-24);}.cls-29{clip-path:url(#clip-path-25);}.cls-30{clip-path:url(#clip-path-26);}.cls-31{clip-path:url(#clip-path-27);}.cls-32{clip-path:url(#clip-path-28);}.cls-33{clip-path:url(#clip-path-29);}.cls-34{clip-path:url(#clip-path-30);}.cls-35{clip-path:url(#clip-path-31);}.cls-36{clip-path:url(#clip-path-32);}.cls-37{clip-path:url(#clip-path-33);}.cls-38{clip-path:url(#clip-path-34);}.cls-39{clip-path:url(#clip-path-35);}.cls-40{clip-path:url(#clip-path-36);}.cls-41{clip-path:url(#clip-path-37);}.cls-42{clip-path:url(#clip-path-38);}.cls-43{clip-path:url(#clip-path-39);}.cls-44{clip-path:url(#clip-path-40);}.cls-45{clip-path:url(#clip-path-41);}.cls-46{clip-path:url(#clip-path-42);}.cls-47{clip-path:url(#clip-path-43);}.cls-48{clip-path:url(#clip-path-44);}.cls-49{clip-path:url(#clip-path-45);}.cls-50{clip-path:url(#clip-path-46);}.cls-51{clip-path:url(#clip-path-47);}.cls-52{clip-path:url(#clip-path-48);}.cls-53{clip-path:url(#clip-path-49);}.cls-54{clip-path:url(#clip-path-50);}.cls-55{clip-path:url(#clip-path-51);}.cls-56{clip-path:url(#clip-path-52);}.cls-57{clip-path:url(#clip-path-53);}.cls-58{clip-path:url(#clip-path-54);}.cls-59{clip-path:url(#clip-path-55);}.cls-60{clip-path:url(#clip-path-56);}.cls-61{clip-path:url(#clip-path-57);}.cls-62{clip-path:url(#clip-path-58);}.cls-63{clip-path:url(#clip-path-59);}.cls-64{clip-path:url(#clip-path-60);}.cls-65{clip-path:url(#clip-path-61);}.cls-66{clip-path:url(#clip-path-62);}.cls-67{clip-path:url(#clip-path-63);}.cls-68{clip-path:url(#clip-path-64);}.cls-69{clip-path:url(#clip-path-65);}.cls-70{clip-path:url(#clip-path-66);}.cls-71{clip-path:url(#clip-path-67);}.cls-72{clip-path:url(#clip-path-68);}.cls-73{clip-path:url(#clip-path-69);}.cls-74{clip-path:url(#clip-path-70);}.cls-75{clip-path:url(#clip-path-71);}.cls-76{clip-path:url(#clip-path-72);}.cls-77{clip-path:url(#clip-path-73);}.cls-78{clip-path:url(#clip-path-74);}.cls-79{clip-path:url(#clip-path-75);}.cls-80{clip-path:url(#clip-path-76);}.cls-81{clip-path:url(#clip-path-77);}.cls-82{clip-path:url(#clip-path-78);}.cls-83{clip-path:url(#clip-path-79);}.cls-84{clip-path:url(#clip-path-80);}.cls-85{clip-path:url(#clip-path-81);}.cls-86{clip-path:url(#clip-path-82);}.cls-87{clip-path:url(#clip-path-83);}.cls-88{clip-path:url(#clip-path-84);}.cls-89{clip-path:url(#clip-path-85);}.cls-90{clip-path:url(#clip-path-86);}.cls-91{clip-path:url(#clip-path-87);}.cls-92{clip-path:url(#clip-path-88);}.cls-93{clip-path:url(#clip-path-89);}.cls-94{fill:gray;}.cls-95{fill:#c2c2c2;}</style><clipPath id="clip-path" transform="translate(-155.59 -21.18)"><path class="cls-1" d="M197.44,21.18h32.79v25H197.44Z"/></clipPath><clipPath id="clip-path-2" transform="translate(-155.59 -21.18)"><path class="cls-1" d="M230.23,21.18v25q-.66,2.9-1.31,5.79V27Q229.57,24.08,230.23,21.18Z"/></clipPath><clipPath id="clip-path-3" transform="translate(-155.59 -21.18)"><path class="cls-1" d="M228.92,27h6.68V52h-6.68Z"/></clipPath><clipPath id="clip-path-4" transform="translate(-155.59 -21.18)"><path class="cls-1" d="M222.24,27V52H208.89V27Z"/></clipPath><clipPath id="clip-path-5" transform="translate(-155.59 -21.18)"><path class="cls-1" d="M227.56,33V58h-6.8V33Z"/></clipPath><clipPath id="clip-path-6" transform="translate(-155.59 -21.18)"><path class="cls-1" d="M235.6,27V52c-.41,2-.83,4-1.23,6V33C234.77,31,235.19,29,235.6,27Z"/></clipPath><clipPath id="clip-path-7" transform="translate(-155.59 -21.18)"><path class="cls-1" d="M234.37,33h6.8V58h-6.8Z"/></clipPath><clipPath id="clip-path-8" transform="translate(-155.59 -21.18)"><path class="cls-1" d="M237.58,52.38v25h-7.21v-25Z"/></clipPath><clipPath id="clip-path-9" transform="translate(-155.59 -21.18)"><path class="cls-1" d="M241.17,33V58q-1.8,9.7-3.59,19.41v-25Q239.38,42.66,241.17,33Z"/></clipPath><clipPath id="clip-path-10" transform="translate(-155.59 -21.18)"><path class="cls-1" d="M216,52.38h7.21v25H216Z"/></clipPath><clipPath id="clip-path-11" transform="translate(-155.59 -21.18)"><path class="cls-1" d="M223.17,52.38q2.21-9.72,4.39-19.41V58q-2.19,9.7-4.39,19.41C223.17,69.88,222.34,59.84,223.17,52.38Z"/></clipPath><clipPath id="clip-path-12" transform="translate(-155.59 -21.18)"><path class="cls-1" d="M214.23,59.37q.87-3.49,1.73-7v25q-.86,3.5-1.73,7C214.23,76.87,213.33,66.82,214.23,59.37Z"/></clipPath><clipPath id="clip-path-13" transform="translate(-155.59 -21.18)"><path class="cls-1" d="M199.54,59.37h14.69v25H199.54Z"/></clipPath><clipPath id="clip-path-14" transform="translate(-155.59 -21.18)"><path class="cls-1" d="M228.94,59.37v25h-7.35v-25Z"/></clipPath><clipPath id="clip-path-15" transform="translate(-155.59 -21.18)"><path class="cls-1" d="M208.89,27V52q-4.68,16.2-9.35,32.4v-25Q204.22,43.17,208.89,27Z"/></clipPath><clipPath id="clip-path-16" transform="translate(-155.59 -21.18)"><path class="cls-1" d="M230.37,52.38v25c-.48,2.33-1,4.66-1.43,7v-25C229.42,57,229.89,54.71,230.37,52.38Z"/></clipPath><clipPath id="clip-path-17" transform="translate(-155.59 -21.18)"><path class="cls-1" d="M182.44,66.65l15-45.47v25l-15,45.47C182.44,84.15,181.25,74.06,182.44,66.65Z"/></clipPath><clipPath id="clip-path-18" transform="translate(-155.59 -21.18)"><path class="cls-1" d="M221.59,59.37v25l-1.65,7.28v-25Z"/></clipPath><clipPath id="clip-path-19" transform="translate(-155.59 -21.18)"><path class="cls-1" d="M219.94,66.65v25h-37.5v-25Z"/></clipPath><clipPath id="clip-path-20" transform="translate(-155.59 -21.18)"><path class="cls-1" d="M264.85,21.18h19.67v25H264.85Z"/></clipPath><clipPath id="clip-path-21" transform="translate(-155.59 -21.18)"><path class="cls-1" d="M284.52,21.18v25q-.15,2.9-.31,5.79V27Q284.38,24.08,284.52,21.18Z"/></clipPath><clipPath id="clip-path-22" transform="translate(-155.59 -21.18)"><path class="cls-1" d="M284.21,27h6.68V52h-6.68Z"/></clipPath><clipPath id="clip-path-23" transform="translate(-155.59 -21.18)"><path class="cls-1" d="M277.53,27V52h-6.68V27Z"/></clipPath><clipPath id="clip-path-24" transform="translate(-155.59 -21.18)"><path class="cls-1" d="M257.5,27h6.67V52H257.5Z"/></clipPath><clipPath id="clip-path-25" transform="translate(-155.59 -21.18)"><path class="cls-1" d="M290.89,27V52l-.21,6V33Z"/></clipPath><clipPath id="clip-path-26" transform="translate(-155.59 -21.18)"><path class="cls-1" d="M290.68,33h6.8V58h-6.8Z"/></clipPath><clipPath id="clip-path-27" transform="translate(-155.59 -21.18)"><path class="cls-1" d="M283.88,33V58h-6.8V33Z"/></clipPath><clipPath id="clip-path-28" transform="translate(-155.59 -21.18)"><path class="cls-1" d="M270.28,33V58h-6.81V33Z"/></clipPath><clipPath id="clip-path-29" transform="translate(-155.59 -21.18)"><path class="cls-1" d="M249.87,33h6.81V58h-6.81Z"/></clipPath><clipPath id="clip-path-30" transform="translate(-155.59 -21.18)"><path class="cls-1" d="M256.68,33c.27-2,.55-4,.82-6V52c-.27,2-.55,4-.82,6C256.68,50.47,256.18,40.45,256.68,33Z"/></clipPath><clipPath id="clip-path-31" transform="translate(-155.59 -21.18)"><path class="cls-1" d="M270.85,27V52l-.57,6V33Z"/></clipPath><clipPath id="clip-path-32" transform="translate(-155.59 -21.18)"><path class="cls-1" d="M263.47,33V58L262,70.66v-25Z"/></clipPath><clipPath id="clip-path-33" transform="translate(-155.59 -21.18)"><path class="cls-1" d="M262,45.66h21.19v25H262Z"/></clipPath><clipPath id="clip-path-34" transform="translate(-155.59 -21.18)"><path class="cls-1" d="M283.19,45.66,283.88,33V58l-.69,12.69C283.19,63.16,283,53.15,283.19,45.66Z"/></clipPath><clipPath id="clip-path-35" transform="translate(-155.59 -21.18)"><path class="cls-1" d="M282.82,52.38v25H261.2v-25Z"/></clipPath><clipPath id="clip-path-36" transform="translate(-155.59 -21.18)"><path class="cls-1" d="M244.54,66.65q2.67-16.85,5.33-33.68V58q-2.67,16.83-5.33,33.68C244.54,84.15,244,74.13,244.54,66.65Z"/></clipPath><clipPath id="clip-path-37" transform="translate(-155.59 -21.18)"><path class="cls-1" d="M297,66.65v25H282v-25Z"/></clipPath><clipPath id="clip-path-38" transform="translate(-155.59 -21.18)"><path class="cls-1" d="M259.54,66.65v25h-15v-25Z"/></clipPath><clipPath id="clip-path-39" transform="translate(-155.59 -21.18)"><path class="cls-1" d="M261.2,52.38v25q-.82,7.14-1.66,14.27v-25Q260.38,59.51,261.2,52.38Z"/></clipPath><clipPath id="clip-path-40" transform="translate(-155.59 -21.18)"><path class="cls-1" d="M297.48,33V58q-.21,16.83-.44,33.68v-25Q297.27,49.81,297.48,33Z"/></clipPath><clipPath id="clip-path-41" transform="translate(-155.59 -21.18)"><path class="cls-1" d="M306,21.18h39.35v25H306Z"/></clipPath><clipPath id="clip-path-42" transform="translate(-155.59 -21.18)"><path class="cls-1" d="M345.38,21.18c.26,1.93.53,3.86.79,5.79V52c-.26-1.93-.53-3.86-.79-5.79Z"/></clipPath><clipPath id="clip-path-43" transform="translate(-155.59 -21.18)"><path class="cls-1" d="M346.17,27h6.68V52h-6.68Z"/></clipPath><clipPath id="clip-path-44" transform="translate(-155.59 -21.18)"><path class="cls-1" d="M339.5,27V52h-20V27Z"/></clipPath><clipPath id="clip-path-45" transform="translate(-155.59 -21.18)"><path class="cls-1" d="M334,39.19h6.93v25H334Z"/></clipPath><clipPath id="clip-path-46" transform="translate(-155.59 -21.18)"><path class="cls-1" d="M319.47,27q.5,9.35,1,18.69v25q-.51-9.34-1-18.69Z"/></clipPath><clipPath id="clip-path-47" transform="translate(-155.59 -21.18)"><path class="cls-1" d="M320.49,45.66h14.13v25H320.49Z"/></clipPath><clipPath id="clip-path-48" transform="translate(-155.59 -21.18)"><path class="cls-1" d="M352.85,27q1.48,9.35,3,18.69v25q-1.47-9.34-3-18.69Z"/></clipPath><clipPath id="clip-path-49" transform="translate(-155.59 -21.18)"><path class="cls-1" d="M355.81,45.66v25H341.68v-25Z"/></clipPath><clipPath id="clip-path-50" transform="translate(-155.59 -21.18)"><path class="cls-1" d="M341.68,45.66q.39,3.36.79,6.72v25q-.41-3.36-.79-6.72Z"/></clipPath><clipPath id="clip-path-51" transform="translate(-155.59 -21.18)"><path class="cls-1" d="M328.07,52.38v25h-7.21v-25Z"/></clipPath><clipPath id="clip-path-52" transform="translate(-155.59 -21.18)"><path class="cls-1" d="M342.47,52.38h7.2v25h-7.2Z"/></clipPath><clipPath id="clip-path-53" transform="translate(-155.59 -21.18)"><path class="cls-1" d="M335.94,59.37v25h-7.35v-25Z"/></clipPath><clipPath id="clip-path-54" transform="translate(-155.59 -21.18)"><path class="cls-1" d="M328.59,59.37v25c-.17-2.33-.35-4.66-.52-7v-25C328.24,54.71,328.42,57,328.59,59.37Z"/></clipPath><clipPath id="clip-path-55" transform="translate(-155.59 -21.18)"><path class="cls-1" d="M350.64,59.37H358v25h-7.34Z"/></clipPath><clipPath id="clip-path-56" transform="translate(-155.59 -21.18)"><path class="cls-1" d="M349.67,52.38c.33,2.33.64,4.66,1,7v25c-.33-2.33-.64-4.66-1-7Z"/></clipPath><clipPath id="clip-path-57" transform="translate(-155.59 -21.18)"><path class="cls-1" d="M320.86,52.38l.78,14.27v25l-.78-14.27Z"/></clipPath><clipPath id="clip-path-58" transform="translate(-155.59 -21.18)"><path class="cls-1" d="M321.64,66.65v25h-15v-25Z"/></clipPath><clipPath id="clip-path-59" transform="translate(-155.59 -21.18)"><path class="cls-1" d="M358,59.37c.39,2.43.78,4.85,1.16,7.28v25c-.38-2.43-.77-4.85-1.16-7.28Z"/></clipPath><clipPath id="clip-path-60" transform="translate(-155.59 -21.18)"><path class="cls-1" d="M336.64,66.65v25c-.23-2.43-.47-4.85-.7-7.28v-25C336.17,61.8,336.41,64.22,336.64,66.65Z"/></clipPath><clipPath id="clip-path-61" transform="translate(-155.59 -21.18)"><path class="cls-1" d="M359.14,66.65v25h-22.5v-25Z"/></clipPath><clipPath id="clip-path-62" transform="translate(-155.59 -21.18)"><path class="cls-1" d="M306.64,66.65v25q-.3-22.74-.61-45.47v-25Q306.33,43.92,306.64,66.65Z"/></clipPath><clipPath id="clip-path-63" transform="translate(-155.59 -21.18)"><path class="cls-1" d="M360.33,21.18h13.11v25H360.33Z"/></clipPath><clipPath id="clip-path-64" transform="translate(-155.59 -21.18)"><path class="cls-1" d="M393.12,21.18h13.12v25H393.12Z"/></clipPath><clipPath id="clip-path-65" transform="translate(-155.59 -21.18)"><path class="cls-1" d="M406.24,21.18q.94,2.89,1.91,5.79V52q-1-2.89-1.91-5.79Z"/></clipPath><clipPath id="clip-path-66" transform="translate(-155.59 -21.18)"><path class="cls-1" d="M408.15,27V52h-6.68V27Z"/></clipPath><clipPath id="clip-path-67" transform="translate(-155.59 -21.18)"><path class="cls-1" d="M388.11,27h6.68V52h-6.68Z"/></clipPath><clipPath id="clip-path-68" transform="translate(-155.59 -21.18)"><path class="cls-1" d="M401.47,27c.61,2,1.23,4,1.85,6V58c-.62-2-1.24-4-1.85-6Z"/></clipPath><clipPath id="clip-path-69" transform="translate(-155.59 -21.18)"><path class="cls-1" d="M403.32,33V58h-6.8V33Z"/></clipPath><clipPath id="clip-path-70" transform="translate(-155.59 -21.18)"><path class="cls-1" d="M382.91,33h6.81V58h-6.81Z"/></clipPath><clipPath id="clip-path-71" transform="translate(-155.59 -21.18)"><path class="cls-1" d="M396.52,33l1.8,6.22v25L396.52,58Z"/></clipPath><clipPath id="clip-path-72" transform="translate(-155.59 -21.18)"><path class="cls-1" d="M398.32,39.19v25h-6.94v-25Z"/></clipPath><clipPath id="clip-path-73" transform="translate(-155.59 -21.18)"><path class="cls-1" d="M377.52,39.19h6.93v25h-6.93Z"/></clipPath><clipPath id="clip-path-74" transform="translate(-155.59 -21.18)"><path class="cls-1" d="M373.44,21.18l4.08,18v25l-4.08-18Z"/></clipPath><clipPath id="clip-path-75" transform="translate(-155.59 -21.18)"><path class="cls-1" d="M393.12,45.66h7.06v25h-7.06Z"/></clipPath><clipPath id="clip-path-76" transform="translate(-155.59 -21.18)"><path class="cls-1" d="M391.38,39.19c.59,2.16,1.16,4.31,1.74,6.47v25c-.58-2.16-1.15-4.31-1.74-6.47Z"/></clipPath><clipPath id="clip-path-77" transform="translate(-155.59 -21.18)"><path class="cls-1" d="M400.18,45.66c.65,2.24,1.29,4.48,1.94,6.72v25c-.65-2.24-1.29-4.48-1.94-6.72Z"/></clipPath><clipPath id="clip-path-78" transform="translate(-155.59 -21.18)"><path class="cls-1" d="M387.71,52.38v25h-7.2v-25Z"/></clipPath><clipPath id="clip-path-79" transform="translate(-155.59 -21.18)"><path class="cls-1" d="M402.12,52.38h7.21v25h-7.21Z"/></clipPath><clipPath id="clip-path-80" transform="translate(-155.59 -21.18)"><path class="cls-1" d="M396.79,59.37v25h-7.35v-25Z"/></clipPath><clipPath id="clip-path-81" transform="translate(-155.59 -21.18)"><path class="cls-1" d="M409.33,52.38l2.16,7v25l-2.16-7Z"/></clipPath><clipPath id="clip-path-82" transform="translate(-155.59 -21.18)"><path class="cls-1" d="M411.49,59.37h7.35v25h-7.35Z"/></clipPath><clipPath id="clip-path-83" transform="translate(-155.59 -21.18)"><path class="cls-1" d="M389.44,59.37v25q-.87-3.5-1.73-7v-25Q388.56,55.88,389.44,59.37Z"/></clipPath><clipPath id="clip-path-84" transform="translate(-155.59 -21.18)"><path class="cls-1" d="M368.74,66.65v25q-4.2-22.74-8.41-45.47v-25Q364.54,43.92,368.74,66.65Z"/></clipPath><clipPath id="clip-path-85" transform="translate(-155.59 -21.18)"><path class="cls-1" d="M380.51,52.38q1.61,7.14,3.23,14.27v25q-1.62-7.14-3.23-14.27Z"/></clipPath><clipPath id="clip-path-86" transform="translate(-155.59 -21.18)"><path class="cls-1" d="M383.74,66.65v25h-15v-25Z"/></clipPath><clipPath id="clip-path-87" transform="translate(-155.59 -21.18)"><path class="cls-1" d="M418.84,59.37l2.39,7.28v25l-2.39-7.28Z"/></clipPath><clipPath id="clip-path-88" transform="translate(-155.59 -21.18)"><path class="cls-1" d="M421.23,66.65v25h-22.5v-25Z"/></clipPath><clipPath id="clip-path-89" transform="translate(-155.59 -21.18)"><path class="cls-1" d="M398.73,66.65v25c-.64-2.43-1.29-4.85-1.94-7.28v-25C397.44,61.8,398.09,64.22,398.73,66.65Z"/></clipPath></defs><g class="cls-2"><path class="cls-3" d="M234.37,58h6.8q-1.8,9.7-3.59,19.41h-7.21c-.48,2.33-1,4.66-1.43,7h-7.35l-1.65,7.28h-37.5l15-45.47h32.79q-.66,2.9-1.31,5.79h6.68C235.19,54,234.77,56,234.37,58Zm-11.2,19.41q2.21-9.72,4.39-19.41h-6.8c.49-2,1-4,1.48-6H208.89q-4.68,16.2-9.35,32.4h14.69q.87-3.5,1.73-7h7.21" transform="translate(-155.59 -21.18)"/><g class="cls-2"><g class="cls-4"><g class="cls-2"><path class="cls-5" d="M197.44,21.18v25h32.79v-25H197.44" transform="translate(-155.59 -21.18)"/></g></g></g><g class="cls-2"><g class="cls-6"><g class="cls-2"><path class="cls-5" d="M230.23,21.18v25q-.66,2.9-1.31,5.79V27q.65-2.89,1.31-5.79" transform="translate(-155.59 -21.18)"/></g></g></g><g class="cls-2"><g class="cls-7"><g class="cls-2"><path class="cls-5" d="M228.92,27V52h6.68V27h-6.68" transform="translate(-155.59 -21.18)"/></g></g></g><g class="cls-2"><g class="cls-8"><g class="cls-2"><path class="cls-5" d="M222.24,27V52H208.89V27h13.35" transform="translate(-155.59 -21.18)"/></g></g></g><g class="cls-2"><g class="cls-9"><g class="cls-2"><path class="cls-5" d="M227.56,33V58h-6.8V33h6.8" transform="translate(-155.59 -21.18)"/></g></g></g><g class="cls-2"><g class="cls-10"><g class="cls-2"><path class="cls-5" d="M235.6,27V52c-.41,2-.83,4-1.23,6V33c.4-2,.82-4,1.23-6" transform="translate(-155.59 -21.18)"/></g></g></g><g class="cls-2"><g class="cls-11"><g class="cls-2"><path class="cls-5" d="M234.37,33V58h6.8V33h-6.8" transform="translate(-155.59 -21.18)"/></g></g></g><g class="cls-2"><g class="cls-12"><g class="cls-2"><path class="cls-5" d="M237.58,52.38v25h-7.21v-25h7.21" transform="translate(-155.59 -21.18)"/></g></g></g><g class="cls-2"><g class="cls-13"><g class="cls-2"><path class="cls-5" d="M241.17,33V58q-1.8,9.7-3.59,19.41v-25q1.8-9.72,3.59-19.41" transform="translate(-155.59 -21.18)"/></g></g></g><g class="cls-2"><g class="cls-14"><g class="cls-2"><path class="cls-5" d="M216,52.38v25h7.21v-25H216" transform="translate(-155.59 -21.18)"/></g></g></g><g class="cls-2"><g class="cls-15"><g class="cls-2"><path class="cls-5" d="M223.17,52.38v25q2.21-9.72,4.39-19.41V33q-2.19,9.7-4.39,19.41" transform="translate(-155.59 -21.18)"/></g></g></g><g class="cls-2"><g class="cls-16"><g class="cls-2"><path class="cls-5" d="M214.23,59.37v25q.87-3.5,1.73-7v-25q-.86,3.49-1.73,7" transform="translate(-155.59 -21.18)"/></g></g></g><g class="cls-2"><g class="cls-17"><g class="cls-2"><path class="cls-5" d="M199.54,59.37v25h14.69v-25H199.54" transform="translate(-155.59 -21.18)"/></g></g></g><g class="cls-2"><g class="cls-18"><g class="cls-2"><path class="cls-5" d="M228.94,59.37v25h-7.35v-25h7.35" transform="translate(-155.59 -21.18)"/></g></g></g><g class="cls-2"><g class="cls-19"><g class="cls-2"><path class="cls-5" d="M208.89,27V52q-4.68,16.2-9.35,32.4v-25q4.68-16.2,9.35-32.4" transform="translate(-155.59 -21.18)"/></g></g></g><g class="cls-2"><g class="cls-20"><g class="cls-2"><path class="cls-5" d="M230.37,52.38v25c-.48,2.33-1,4.66-1.43,7v-25c.48-2.33.95-4.66,1.43-7" transform="translate(-155.59 -21.18)"/></g></g></g><g class="cls-2"><g class="cls-21"><g class="cls-2"><path class="cls-5" d="M182.44,66.65v25l15-45.47v-25l-15,45.47" transform="translate(-155.59 -21.18)"/></g></g></g><path class="cls-3" d="M234.37,33h6.8q-1.8,9.7-3.59,19.41h-7.21c-.48,2.33-1,4.66-1.43,7h-7.35l-1.65,7.28h-37.5l15-45.47h32.79q-.66,2.89-1.31,5.79h6.68C235.19,29,234.77,31,234.37,33Zm-11.2,19.41q2.21-9.72,4.39-19.41h-6.8c.49-2,1-4,1.48-6H208.89q-4.68,16.2-9.35,32.4h14.69q.87-3.49,1.73-7h7.21" transform="translate(-155.59 -21.18)"/><g class="cls-2"><g class="cls-22"><g class="cls-2"><path class="cls-5" d="M221.59,59.37v25l-1.65,7.28v-25l1.65-7.28" transform="translate(-155.59 -21.18)"/></g></g></g><g class="cls-2"><g class="cls-23"><g class="cls-2"><path class="cls-5" d="M219.94,66.65v25h-37.5v-25h37.5" transform="translate(-155.59 -21.18)"/></g></g></g></g><g class="cls-2"><path class="cls-3" d="M290.68,58h6.8q-.21,16.83-.44,33.68H282l.78-14.27H261.2q-.82,7.14-1.66,14.27h-15q2.67-16.84,5.33-33.68h6.81c.27-2,.55-4,.82-6h6.67c.23-1.93.45-3.86.68-5.79h19.67q-.15,2.9-.31,5.79h6.68Zm-7.49,12.69L283.88,58h-6.8l.45-6h-6.68l-.57,6h-6.81L262,70.66h21.19" transform="translate(-155.59 -21.18)"/><g class="cls-2"><g class="cls-24"><g class="cls-2"><path class="cls-5" d="M264.85,21.18v25h19.67v-25H264.85" transform="translate(-155.59 -21.18)"/></g></g></g><g class="cls-2"><g class="cls-25"><g class="cls-2"><path class="cls-5" d="M284.52,21.18v25q-.15,2.9-.31,5.79V27q.17-2.89.31-5.79" transform="translate(-155.59 -21.18)"/></g></g></g><g class="cls-2"><g class="cls-26"><g class="cls-2"><path class="cls-5" d="M284.21,27V52h6.68V27h-6.68" transform="translate(-155.59 -21.18)"/></g></g></g><g class="cls-2"><g class="cls-27"><g class="cls-2"><path class="cls-5" d="M277.53,27V52h-6.68V27h6.68" transform="translate(-155.59 -21.18)"/></g></g></g><g class="cls-2"><g class="cls-28"><g class="cls-2"><path class="cls-5" d="M257.5,27V52h6.67V27H257.5" transform="translate(-155.59 -21.18)"/></g></g></g><g class="cls-2"><g class="cls-29"><g class="cls-2"><path class="cls-5" d="M290.89,27V52l-.21,6V33l.21-6" transform="translate(-155.59 -21.18)"/></g></g></g><g class="cls-2"><g class="cls-30"><g class="cls-2"><path class="cls-5" d="M290.68,33V58h6.8V33h-6.8" transform="translate(-155.59 -21.18)"/></g></g></g><g class="cls-2"><g class="cls-31"><g class="cls-2"><path class="cls-5" d="M283.88,33V58h-6.8V33h6.8" transform="translate(-155.59 -21.18)"/></g></g></g><g class="cls-2"><g class="cls-32"><g class="cls-2"><path class="cls-5" d="M270.28,33V58h-6.81V33h6.81" transform="translate(-155.59 -21.18)"/></g></g></g><g class="cls-2"><g class="cls-33"><g class="cls-2"><path class="cls-5" d="M249.87,33V58h6.81V33h-6.81" transform="translate(-155.59 -21.18)"/></g></g></g><g class="cls-2"><g class="cls-34"><g class="cls-2"><path class="cls-5" d="M256.68,33V58c.27-2,.55-4,.82-6V27c-.27,2-.55,4-.82,6" transform="translate(-155.59 -21.18)"/></g></g></g><g class="cls-2"><g class="cls-35"><g class="cls-2"><path class="cls-5" d="M270.85,27V52l-.57,6V33l.57-6" transform="translate(-155.59 -21.18)"/></g></g></g><g class="cls-2"><g class="cls-36"><g class="cls-2"><path class="cls-5" d="M263.47,33V58L262,70.66v-25L263.47,33" transform="translate(-155.59 -21.18)"/></g></g></g><g class="cls-2"><g class="cls-37"><g class="cls-2"><path class="cls-5" d="M262,45.66v25h21.19v-25H262" transform="translate(-155.59 -21.18)"/></g></g></g><g class="cls-2"><g class="cls-38"><g class="cls-2"><path class="cls-5" d="M283.19,45.66v25L283.88,58V33l-.69,12.69" transform="translate(-155.59 -21.18)"/></g></g></g><g class="cls-2"><g class="cls-39"><g class="cls-2"><path class="cls-5" d="M282.82,52.38v25H261.2v-25h21.62" transform="translate(-155.59 -21.18)"/></g></g></g><g class="cls-2"><g class="cls-40"><g class="cls-2"><path class="cls-5" d="M244.54,66.65v25q2.67-16.84,5.33-33.68V33q-2.67,16.83-5.33,33.68" transform="translate(-155.59 -21.18)"/></g></g></g><path class="cls-3" d="M290.68,33h6.8q-.21,16.83-.44,33.68H282l.78-14.27H261.2q-.82,7.14-1.66,14.27h-15q2.67-16.85,5.33-33.68h6.81c.27-2,.55-4,.82-6h6.67c.23-1.93.45-3.86.68-5.79h19.67q-.15,2.89-.31,5.79h6.68Zm-7.49,12.69L283.88,33h-6.8l.45-6h-6.68l-.57,6h-6.81L262,45.66h21.19" transform="translate(-155.59 -21.18)"/><g class="cls-2"><g class="cls-41"><g class="cls-2"><path class="cls-5" d="M297,66.65v25H282v-25h15" transform="translate(-155.59 -21.18)"/></g></g></g><g class="cls-2"><g class="cls-42"><g class="cls-2"><path class="cls-5" d="M259.54,66.65v25h-15v-25h15" transform="translate(-155.59 -21.18)"/></g></g></g><g class="cls-2"><g class="cls-43"><g class="cls-2"><path class="cls-5" d="M261.2,52.38v25q-.82,7.14-1.66,14.27v-25q.84-7.14,1.66-14.27" transform="translate(-155.59 -21.18)"/></g></g></g><g class="cls-2"><g class="cls-44"><g class="cls-2"><path class="cls-5" d="M297.48,33V58q-.21,16.83-.44,33.68v-25q.22-16.85.44-33.68" transform="translate(-155.59 -21.18)"/></g></g></g></g><g class="cls-2"><path class="cls-3" d="M358,84.37c.39,2.43.78,4.85,1.16,7.28h-22.5c-.23-2.43-.47-4.85-.7-7.28h-7.35c-.17-2.33-.35-4.66-.52-7h-7.21l.78,14.27h-15q-.3-22.74-.61-45.47h39.35c.26,1.93.53,3.86.79,5.79h6.68q1.48,9.35,3,18.69H341.68q.39,3.36.79,6.72h7.2c.33,2.33.64,4.66,1,7ZM334,64.19h6.93q-.72-6.11-1.43-12.22h-20q.5,9.35,1,18.69h14.13c-.21-2.16-.42-4.31-.62-6.47" transform="translate(-155.59 -21.18)"/><g class="cls-2"><g class="cls-45"><g class="cls-2"><path class="cls-5" d="M306,21.18v25h39.35v-25H306" transform="translate(-155.59 -21.18)"/></g></g></g><g class="cls-2"><g class="cls-46"><g class="cls-2"><path class="cls-5" d="M345.38,21.18v25c.26,1.93.53,3.86.79,5.79V27c-.26-1.93-.53-3.86-.79-5.79" transform="translate(-155.59 -21.18)"/></g></g></g><g class="cls-2"><g class="cls-47"><g class="cls-2"><path class="cls-5" d="M346.17,27V52h6.68V27h-6.68" transform="translate(-155.59 -21.18)"/></g></g></g><g class="cls-2"><g class="cls-48"><g class="cls-2"><path class="cls-5" d="M339.5,27V52h-20V27h20" transform="translate(-155.59 -21.18)"/></g></g></g><g class="cls-2"><g class="cls-49"><g class="cls-2"><path class="cls-5" d="M334,39.19v25h6.93v-25H334" transform="translate(-155.59 -21.18)"/></g></g></g><g class="cls-2"><g class="cls-50"><g class="cls-2"><path class="cls-5" d="M319.47,27V52q.5,9.35,1,18.69v-25q-.51-9.34-1-18.69" transform="translate(-155.59 -21.18)"/></g></g></g><g class="cls-2"><g class="cls-51"><g class="cls-2"><path class="cls-5" d="M320.49,45.66v25h14.13v-25H320.49" transform="translate(-155.59 -21.18)"/></g></g></g><g class="cls-2"><g class="cls-52"><g class="cls-2"><path class="cls-5" d="M352.85,27V52q1.48,9.35,3,18.69v-25q-1.47-9.34-3-18.69" transform="translate(-155.59 -21.18)"/></g></g></g><g class="cls-2"><g class="cls-53"><g class="cls-2"><path class="cls-5" d="M355.81,45.66v25H341.68v-25h14.13" transform="translate(-155.59 -21.18)"/></g></g></g><g class="cls-2"><g class="cls-54"><g class="cls-2"><path class="cls-5" d="M341.68,45.66v25q.39,3.36.79,6.72v-25q-.41-3.36-.79-6.72" transform="translate(-155.59 -21.18)"/></g></g></g><g class="cls-2"><g class="cls-55"><g class="cls-2"><path class="cls-5" d="M328.07,52.38v25h-7.21v-25h7.21" transform="translate(-155.59 -21.18)"/></g></g></g><g class="cls-2"><g class="cls-56"><g class="cls-2"><path class="cls-5" d="M342.47,52.38v25h7.2v-25h-7.2" transform="translate(-155.59 -21.18)"/></g></g></g><g class="cls-2"><g class="cls-57"><g class="cls-2"><path class="cls-5" d="M335.94,59.37v25h-7.35v-25h7.35" transform="translate(-155.59 -21.18)"/></g></g></g><g class="cls-2"><g class="cls-58"><g class="cls-2"><path class="cls-5" d="M328.59,59.37v25c-.17-2.33-.35-4.66-.52-7v-25c.17,2.33.35,4.66.52,7" transform="translate(-155.59 -21.18)"/></g></g></g><g class="cls-2"><g class="cls-59"><g class="cls-2"><path class="cls-5" d="M350.64,59.37v25H358v-25h-7.34" transform="translate(-155.59 -21.18)"/></g></g></g><g class="cls-2"><g class="cls-60"><g class="cls-2"><path class="cls-5" d="M349.67,52.38v25c.33,2.33.64,4.66,1,7v-25c-.33-2.33-.64-4.66-1-7" transform="translate(-155.59 -21.18)"/></g></g></g><g class="cls-2"><g class="cls-61"><g class="cls-2"><path class="cls-5" d="M320.86,52.38v25l.78,14.27v-25l-.78-14.27" transform="translate(-155.59 -21.18)"/></g></g></g><g class="cls-2"><g class="cls-62"><g class="cls-2"><path class="cls-5" d="M321.64,66.65v25h-15v-25h15" transform="translate(-155.59 -21.18)"/></g></g></g><g class="cls-2"><g class="cls-63"><g class="cls-2"><path class="cls-5" d="M358,59.37v25c.39,2.43.78,4.85,1.16,7.28v-25c-.38-2.43-.77-4.85-1.16-7.28" transform="translate(-155.59 -21.18)"/></g></g></g><path class="cls-3" d="M358,59.37c.39,2.43.78,4.85,1.16,7.28h-22.5c-.23-2.43-.47-4.85-.7-7.28h-7.35c-.17-2.33-.35-4.66-.52-7h-7.21l.78,14.27h-15q-.3-22.74-.61-45.47h39.35c.26,1.93.53,3.86.79,5.79h6.68q1.48,9.35,3,18.69H341.68q.39,3.36.79,6.72h7.2c.33,2.33.64,4.66,1,7ZM334,39.19h6.93q-.72-6.11-1.43-12.22h-20q.5,9.35,1,18.69h14.13c-.21-2.16-.42-4.31-.62-6.47" transform="translate(-155.59 -21.18)"/><g class="cls-2"><g class="cls-64"><g class="cls-2"><path class="cls-5" d="M336.64,66.65v25c-.23-2.43-.47-4.85-.7-7.28v-25c.23,2.43.47,4.85.7,7.28" transform="translate(-155.59 -21.18)"/></g></g></g><g class="cls-2"><g class="cls-65"><g class="cls-2"><path class="cls-5" d="M359.14,66.65v25h-22.5v-25h22.5" transform="translate(-155.59 -21.18)"/></g></g></g><g class="cls-2"><g class="cls-66"><g class="cls-2"><path class="cls-5" d="M306.64,66.65v25q-.3-22.74-.61-45.47v-25q.3,22.74.61,45.47" transform="translate(-155.59 -21.18)"/></g></g></g></g><g class="cls-2"><path class="cls-3" d="M406.24,46.18q.94,2.9,1.91,5.79h-6.68c.61,2,1.23,4,1.85,6h-6.8l1.8,6.22h-6.94c.59,2.16,1.16,4.31,1.74,6.47h7.06c.65,2.24,1.29,4.48,1.94,6.72h7.21l2.16,7h7.35l2.39,7.28h-22.5c-.64-2.43-1.29-4.85-1.94-7.28h-7.35q-.87-3.5-1.73-7h-7.2q1.61,7.14,3.23,14.27h-15q-4.2-22.74-8.41-45.47h13.11l4.08,18h6.93c-.51-2.08-1-4.15-1.54-6.22h6.81c-.54-2-1.08-4-1.61-6h6.68c-.56-1.93-1.11-3.86-1.67-5.79Z" transform="translate(-155.59 -21.18)"/><g class="cls-2"><g class="cls-67"><g class="cls-2"><path class="cls-5" d="M360.33,21.18v25h13.11v-25H360.33" transform="translate(-155.59 -21.18)"/></g></g></g><g class="cls-2"><g class="cls-68"><g class="cls-2"><path class="cls-5" d="M393.12,21.18v25h13.12v-25H393.12" transform="translate(-155.59 -21.18)"/></g></g></g><g class="cls-2"><g class="cls-69"><g class="cls-2"><path class="cls-5" d="M406.24,21.18v25q.94,2.9,1.91,5.79V27q-1-2.89-1.91-5.79" transform="translate(-155.59 -21.18)"/></g></g></g><g class="cls-2"><g class="cls-70"><g class="cls-2"><path class="cls-5" d="M408.15,27V52h-6.68V27h6.68" transform="translate(-155.59 -21.18)"/></g></g></g><g class="cls-2"><g class="cls-71"><g class="cls-2"><path class="cls-5" d="M388.11,27V52h6.68V27h-6.68" transform="translate(-155.59 -21.18)"/></g></g></g><g class="cls-2"><g class="cls-72"><g class="cls-2"><path class="cls-5" d="M401.47,27V52c.61,2,1.23,4,1.85,6V33c-.62-2-1.24-4-1.85-6" transform="translate(-155.59 -21.18)"/></g></g></g><g class="cls-2"><g class="cls-73"><g class="cls-2"><path class="cls-5" d="M403.32,33V58h-6.8V33h6.8" transform="translate(-155.59 -21.18)"/></g></g></g><g class="cls-2"><g class="cls-74"><g class="cls-2"><path class="cls-5" d="M382.91,33V58h6.81V33h-6.81" transform="translate(-155.59 -21.18)"/></g></g></g><g class="cls-2"><g class="cls-75"><g class="cls-2"><path class="cls-5" d="M396.52,33V58l1.8,6.22v-25L396.52,33" transform="translate(-155.59 -21.18)"/></g></g></g><g class="cls-2"><g class="cls-76"><g class="cls-2"><path class="cls-5" d="M398.32,39.19v25h-6.94v-25h6.94" transform="translate(-155.59 -21.18)"/></g></g></g><g class="cls-2"><g class="cls-77"><g class="cls-2"><path class="cls-5" d="M377.52,39.19v25h6.93v-25h-6.93" transform="translate(-155.59 -21.18)"/></g></g></g><g class="cls-2"><g class="cls-78"><g class="cls-2"><path class="cls-5" d="M373.44,21.18v25l4.08,18v-25l-4.08-18" transform="translate(-155.59 -21.18)"/></g></g></g><g class="cls-2"><g class="cls-79"><g class="cls-2"><path class="cls-5" d="M393.12,45.66v25h7.06v-25h-7.06" transform="translate(-155.59 -21.18)"/></g></g></g><g class="cls-2"><g class="cls-80"><g class="cls-2"><path class="cls-5" d="M391.38,39.19v25c.59,2.16,1.16,4.31,1.74,6.47v-25c-.58-2.16-1.15-4.31-1.74-6.47" transform="translate(-155.59 -21.18)"/></g></g></g><g class="cls-2"><g class="cls-81"><g class="cls-2"><path class="cls-5" d="M400.18,45.66v25c.65,2.24,1.29,4.48,1.94,6.72v-25c-.65-2.24-1.29-4.48-1.94-6.72" transform="translate(-155.59 -21.18)"/></g></g></g><g class="cls-2"><g class="cls-82"><g class="cls-2"><path class="cls-5" d="M387.71,52.38v25h-7.2v-25h7.2" transform="translate(-155.59 -21.18)"/></g></g></g><g class="cls-2"><g class="cls-83"><g class="cls-2"><path class="cls-5" d="M402.12,52.38v25h7.21v-25h-7.21" transform="translate(-155.59 -21.18)"/></g></g></g><g class="cls-2"><g class="cls-84"><g class="cls-2"><path class="cls-5" d="M396.79,59.37v25h-7.35v-25h7.35" transform="translate(-155.59 -21.18)"/></g></g></g><g class="cls-2"><g class="cls-85"><g class="cls-2"><path class="cls-5" d="M409.33,52.38v25l2.16,7v-25l-2.16-7" transform="translate(-155.59 -21.18)"/></g></g></g><g class="cls-2"><g class="cls-86"><g class="cls-2"><path class="cls-5" d="M411.49,59.37v25h7.35v-25h-7.35" transform="translate(-155.59 -21.18)"/></g></g></g><g class="cls-2"><g class="cls-87"><g class="cls-2"><path class="cls-5" d="M389.44,59.37v25q-.87-3.5-1.73-7v-25q.85,3.49,1.73,7" transform="translate(-155.59 -21.18)"/></g></g></g><g class="cls-2"><g class="cls-88"><g class="cls-2"><path class="cls-5" d="M368.74,66.65v25q-4.2-22.74-8.41-45.47v-25q4.21,22.74,8.41,45.47" transform="translate(-155.59 -21.18)"/></g></g></g><g class="cls-2"><g class="cls-89"><g class="cls-2"><path class="cls-5" d="M380.51,52.38v25q1.61,7.14,3.23,14.27v-25q-1.62-7.14-3.23-14.27" transform="translate(-155.59 -21.18)"/></g></g></g><g class="cls-2"><g class="cls-90"><g class="cls-2"><path class="cls-5" d="M383.74,66.65v25h-15v-25h15" transform="translate(-155.59 -21.18)"/></g></g></g><g class="cls-2"><g class="cls-91"><g class="cls-2"><path class="cls-5" d="M418.84,59.37v25l2.39,7.28v-25l-2.39-7.28" transform="translate(-155.59 -21.18)"/></g></g></g><g class="cls-2"><g class="cls-92"><g class="cls-2"><path class="cls-5" d="M421.23,66.65v25h-22.5v-25h22.5" transform="translate(-155.59 -21.18)"/></g></g></g><g class="cls-2"><g class="cls-93"><g class="cls-2"><path class="cls-5" d="M398.73,66.65v25c-.64-2.43-1.29-4.85-1.94-7.28v-25c.65,2.43,1.3,4.85,1.94,7.28" transform="translate(-155.59 -21.18)"/></g></g></g><path class="cls-3" d="M406.24,21.18q.94,2.89,1.91,5.79h-6.68c.61,2,1.23,4,1.85,6h-6.8l1.8,6.22h-6.94c.59,2.16,1.16,4.31,1.74,6.47h7.06c.65,2.24,1.29,4.48,1.94,6.72h7.21l2.16,7h7.35l2.39,7.28h-22.5c-.64-2.43-1.29-4.85-1.94-7.28h-7.35q-.87-3.49-1.73-7h-7.2q1.61,7.14,3.23,14.27h-15q-4.2-22.74-8.41-45.47h13.11l4.08,18h6.93c-.51-2.08-1-4.15-1.54-6.22h6.81c-.54-2-1.08-4-1.61-6h6.68c-.56-1.93-1.11-3.86-1.67-5.79Z" transform="translate(-155.59 -21.18)"/></g><g class="cls-2"><polygon class="cls-94" points="28.48 77.06 28.48 102.06 17.11 140.41 17.11 115.41 28.48 77.06"/><polygon class="cls-94" points="54.02 115.41 54.02 140.41 52.5 147.52 52.5 122.52 54.02 115.41"/><rect class="cls-94" y="122.52" width="52.5" height="25"/><polygon class="cls-95" points="28.48 77.06 17.11 115.41 54.02 115.41 52.5 122.52 0 122.52 14.99 77.06 28.48 77.06"/></g><g class="cls-2"><polygon class="cls-94" points="114.65 77.06 114.65 102.06 114.16 107.98 114.16 82.98 114.65 77.06"/><rect class="cls-94" x="100.48" y="82.98" width="13.68" height="25"/><rect class="cls-94" x="73.11" y="82.98" width="13.69" height="25"/><polygon class="cls-94" points="100.48 82.98 100.48 107.98 96.68 140.41 96.68 115.41 100.48 82.98"/><rect class="cls-94" x="65.84" y="122.52" width="45" height="25"/><polygon class="cls-94" points="111.45 115.41 111.45 140.41 110.84 147.52 110.84 122.52 111.45 115.41"/><polygon class="cls-95" points="114.65 77.06 114.16 82.98 100.48 82.98 96.68 115.41 111.45 115.41 110.84 122.52 65.84 122.52 67.15 115.41 81.92 115.41 86.8 82.98 73.11 82.98 74.2 77.06 114.65 77.06"/></g><g class="cls-2"><rect class="cls-94" x="146.86" y="82.98" width="27.36" height="25"/><polygon class="cls-94" points="146.86 82.98 146.86 107.98 146.84 114.08 146.84 89.08 146.86 82.98"/><rect class="cls-94" x="139.9" y="89.08" width="6.94" height="25"/><rect class="cls-94" x="153.94" y="101.84" width="7.15" height="25"/><polygon class="cls-94" points="153.94 101.84 153.94 126.84 153.85 120.37 153.85 95.37 153.94 101.84"/><polygon class="cls-94" points="139.9 89.08 139.9 114.08 139.49 133.52 139.49 108.52 139.9 89.08"/><rect class="cls-94" x="124.96" y="108.52" width="7.26" height="25"/><rect class="cls-94" x="131.97" y="115.27" width="7.38" height="25"/><polygon class="cls-94" points="146.75 108.52 146.75 133.52 146.73 140.41 146.73 115.41 146.75 108.52"/><polygon class="cls-94" points="161.49 115.41 161.49 140.41 161.09 126.84 161.09 101.84 161.49 115.41"/><polygon class="cls-95" points="173.85 77.06 174.22 82.98 146.86 82.98 146.84 89.08 139.9 89.08 139.49 108.52 146.75 108.52 146.73 115.41 161.49 115.41 161.09 101.84 153.94 101.84 153.85 95.37 175 95.37 176.7 122.52 139.19 122.52 139.35 115.27 131.97 115.27 132.22 108.52 124.96 108.52 126.01 89.08 132.95 89.08 133.17 82.98 140.02 82.98 140.14 77.06 173.85 77.06"/><rect class="cls-94" x="139.19" y="122.52" width="37.5" height="25"/></g><g class="cls-2"><polygon class="cls-94" points="219.26 95.37 219.26 120.37 216.2 102.06 216.2 77.06 219.26 95.37"/><rect class="cls-94" x="198.87" y="101.84" width="21.46" height="25"/><polygon class="cls-94" points="223.79 122.52 223.79 147.52 220.34 126.84 220.34 101.84 223.79 122.52"/><rect class="cls-94" x="186.3" y="122.52" width="14.99" height="25"/><polygon class="cls-94" points="186.3 122.52 186.3 147.52 182.48 102.06 182.48 77.06 186.3 122.52"/><rect class="cls-94" x="223.79" y="122.52" width="15" height="25"/><polygon class="cls-95" points="229.69 77.06 238.8 122.52 223.79 122.52 220.34 101.84 198.87 101.84 201.29 122.52 186.3 122.52 182.48 77.06 195.97 77.06 198.12 95.37 219.26 95.37 216.2 77.06 229.69 77.06"/></g><g class="cls-2"><rect class="cls-94" x="270.41" y="82.98" width="13.69" height="25"/><rect class="cls-94" x="243.05" y="82.98" width="13.68" height="25"/><polygon class="cls-94" points="243.05 82.98 243.05 107.98 241.69 102.06 241.69 77.06 243.05 82.98"/><polygon class="cls-94" points="267.15 122.52 267.15 147.52 256.73 107.98 256.73 82.98 267.15 122.52"/><rect class="cls-94" x="267.15" y="122.52" width="14.99" height="25"/><polygon class="cls-95" points="282.14 77.06 284.1 82.98 270.41 82.98 282.14 122.52 267.15 122.52 256.73 82.98 243.05 82.98 241.69 77.06 282.14 77.06"/></g></svg>